<?xml version="1.0" encoding="UTF-8"?>
<svg id="Layer_2" data-name="Layer 2" xmlns="http://www.w3.org/2000/svg" xmlns:xlink="http://www.w3.org/1999/xlink" viewBox="0 0 1324.83 414.84">
  <defs>
    <style>
      .cls-1 {
        fill: none;
      }

      .cls-2 {
        fill: #201e3d;
      }

      .cls-3 {
        fill: #ff9500;
      }

      .cls-4 {
        clip-path: url(#clippath);
      }
    </style>
    <clipPath id="clippath">
      <circle class="cls-1" cx="207.42" cy="207.42" r="207.42"/>
    </clipPath>
  </defs>
  <g id="Layer_1" data-name="Layer 1">
    <g>
      <g>
        <circle class="cls-3" cx="207.42" cy="207.42" r="207.42"/>
        <path class="cls-2" d="M333.06,397.44v10.85h-1.92v-10.85h-3.64v-1.67h9.2v1.67h-3.64ZM349.93,408.29v-10.45h-.06l-3.81,10.45h-1.21l-3.81-10.45h-.06v10.45h-1.92v-12.52h2.96l3.47,9.51,3.41-9.51h2.93v12.52h-1.92Z"/>
        <g class="cls-4">
          <g>
            <path class="cls-2" d="M187.65,190.94l.39-.25c.11-.07-.34.13-.39.25Z"/>
            <path class="cls-2" d="M227.03,151.68s0,.04,0,.06c.28-.03.05-.12,0-.06Z"/>
            <path class="cls-2" d="M390.93,178.9c-2.27-3.59-7.81-1.73-11.62-1.1-4.08.67-8.02,1.16-12.04,2.51,0,.01.02.02.03.03-.02,0-.04,0-.07.01-1.81.35-3.59.66-5.37,1.03l-.35-.36-8.74.95c-.91.1-1.76.24-2.48.52-.29-.2-1.02-.66-1.49-.74-.47-.07-1.58.43-1.94.81-2.34,2.47-4.71,5.11-7.29,7.3-2.22,1.88-3.58,3.93-5.22,6.28-2.86,4.09-6.79,7.15-10.55,10.44-.83.72-1.06,1.64-1.1,2.38l-.6.35c-.17-.28-.12,1.13-.39.69l-.06-.42-8.46,4.95-19.49,13.66c-.83.53-1.64,1.08-2.41,1.69l-8.5,5.95s0,0,0,0c-1.14.46-2.16,1.02-3.02,1.78l-1.84,1.63h0s-7.14,1.33-7.14,1.33c.11-.3.28-.62.5-.95-4.44,1.1-7.14,2.23-9.58,4.98,0,0,0,0,0,0l-2.86,1.37-9.02-1.99h0c-1.99-2.19-6.92-2.88-9.07-3.48l-2.12-1.65-3.97-3.06c-1.87-1.44-3.74-2.08-6.39-1.98,0,0,0,0,0,0l-3.44-2.01-.49-.87-.61-1.14-3.02-7.89c0-.07-.02-.14-.08-.22l6.09-7.08,2.32-2.05c.2-.18.69-1.05.45-1.17l-.43-2.89c-4.92-5.12-7.37-5.29-12.2-10.74l2.82-3.35s0,0,0,0c2.32.35,4.39-.27,5.81-2.04l4.06-5.06c.94-1.18,5.87,4.56,6.82,5.65,1.03,1.18,1.59,2.54,2.48,3.9,1.4,2.14,3.42,4.17,5.07,6.24h0s2.52-.05,2.52-.05c2.82,2.38,4.68,6.31,7.71,8.49,2.44.9,6.1-2.45,5.42-4.66,0,0,0,0,0,0-2.56-2.41-4.47-5.09-6.32-7.94.85.28-.21-1.54.66-1.09.4-.32.84-2.47.16-2.89-1.23-.75-1.66-1.34-2.58-2.54l-9.97-12.94c-.18-.24-.09-.85,0-.63.04.08,1.08-1.89,1.22-1.97,1.21-.7.7-2.89.4-4.57-.36-2.05-1.3-2.64-3.19-4.05l-2.17-4.75-3.52-2.38c-.7-.47-1.14-1.23-1.22-2.06l-.12-1.21c-.1-1.1-.72-2.08-1.67-2.65l-1.21-.73c.09-.08-1.19-1.06-1.2-1.05l-.44-.8-1.39-.84s-.01-.05,0-.06c-.03-1.24.17-2.68-.67-3.7-.37-.45-1.61-1.65-2.06-1.99-.45-.35-1.66-.42-2.26-.16l-6,2.53c1.53-2.33.07-5.15-1.9-9.21s-10.4-4.1-10.4-4.1c-1.97.2-4.28,1.78-5.76,3.36-4.29,4.59-1.97,11.76,1.14,14.04l3.51,2.57,2.48.49c.12.36.26.73.31,1.1.67,4.83-3.98,7.11-2.89,16.95.54,4.9-2.37,10.25-4.63,11.36l-1.89.93-7.39,6.31-.3-.37-.67-.84-3.64-4.57,4.26.38c.93.2,1.72.38,2.1.47,1.34.33.83-5.36-.67-8.71-.19-.43-.41-.87-.65-1.31.02-.15,0-.31-.09-.46l-.13-.25c-.08-.16-.22-.25-.36-.32-1.56-2.63-3.47-5.03-3.47-5.03l-9.56,4.72-2.04-5.55c1.76-1.41,4.31-2.23,6.54-2.74,3.29-.76,5.36-2.67,7.92-4.6,1.05-.79,4.28-.03,4.67-2.02l.3-1.54c-.63-1.09-1.71-2.96-2.75-3.9l-3.13-2.84c-.5-.46-2.22-1.48-1.45-2.22,1.8-1.72,4.7-1.71,6.92-.85.35.13.74.04.96-.27l.38-.54c.48-.67.42-1.57-.12-2.18l-1.77-1.96-3.39-3.8,4.23,2.16,3.05-4.61c.41-.63.8-2.32.48-2.97l-2.35-1.52c-.49-.32-1.4-.77-1.48-1.21l-1.25-1.03-1.31-.99,1.87-.73c.85-.33,2.18.16,3.31-.22.95-.33.98-.22.95-.33l.51-.07c1.26-.44,2.71.02,3.15-1.41.57-1.85-2.02-5.4-2.76-6.77l-2.98-5.46c-.07-.13-.24-.83-.21-.84.03-.02.24-.02.42-.03l2.45,3.1,38.96-20.71c1.3-.69,1.08-2.77.52-3.89-2.66-5.3-6.85-9.13-11.6-12.57-3.23-2.34-6.83-3.65-10.32-5.59-6.21-3.45-11.84-7.38-18.6-9.95-12.24-4.67-24.96-6.62-37.58-6.17l-.03-.16c-.12-.3-.31-.64-.54-.98l-.25-1.42c-.41-1.04-1.61-2.54-2.8-3.33-.99-.66-3.32-.43-4.49.1-6.54,2.92-12.71,5.8-18.93,9.52.17-.01.33-.03.49-.05-1.25.64-2.49,1.3-3.73,1.98-6.09,2.08-12.04,4.71-17.77,7.84-7.88,4.3-14.6,9.42-21.05,15.6-10.05,9.64-20.15,23.97-22.18,38.08-.87,6.04.83,12.19,4.32,17.07,3.54,4.94,8.48,7.79,14.12,9.79,6.55,2.33,13.59,3.65,20.35,1.45,4.55-1.48,8.6-4.72,13.2-5.64.01,0,.03,0,.04.02.77,1.18,1.82,1.58,3.28,1.65.13.57-.21,2.44-.88,2.38-.84-.09-2.2-.47-2.68-.16-.42.27-.85,1.06-1.16,1.69-1.72,3.54-3.65,6.82-6.34,9.65,0,0,0,0,0,0-5.12-1.73-4.74,1.65-10.21.11-4.15-1.17-8.09-1.34-12.26-.54-2.56.49-5.44.45-7.74,1.89-8.04,5.03-11.16,14.2-13.21,22.94-.78,3.34-.52,6.32-.71,9.7-.4,7.19-1.59,14.19-1.32,21.47.15,4,.76,7.75,1.15,11.71l.58,5.97c.09.93.56.93.84,2.4.16.8-.16,1.95.67,2.53l.38,1.83c.19.13.31.35.33.58.48,4.54,2.9,4.26,2.77,7.01-.09,1.81,1.05,2.71,1.64,4.12,2.18,5.21,3.69,10.54,5.16,16.03,1.7,6.35,3.58,12.45,5.71,18.64l-1.8,4.32c-.52,1.24.18,3.15,1,4.07l3.69,4.15h0c-1.45,4.35.39,8.85-.06,13.14-.67,6.36-4.04,12.19-3.34,18.93.51,4.97-.23,9.99-1.77,14.74-3.64,11.2-7.16,26.71-8.28,38.38l-2.71,28.26h156.18s-.33-11.33-.33-11.33l-.18-20.94c-.07-7.63-.32-14.98,0-22.63.12-2.82.16-5.62.15-8.42v-.02s0,0,0,0c-.05-16.35-2.15-32.39-5.03-48.59-1.31-7.34.95-14.53,1.74-21.81l15.35,4.22c6.6,1.82,13.07,3.41,19.85,4.55,2.48.42,4.86-.3,6.88-1.73,9.65-6.81,13.88-6.4,23.7-11.46l14.32-7.39,33.94-16.84c.61-.3.27-1.52.22-1.42l1.28.28c-.88-2.03-1.34-3.37-2.65-5.26,0,0,0,0,0,0,3.28-2.58,6.94-3.48,11.23-6.49l-9.67-15.62c.12-.25.25-.51.41-.75.73-1.07,2.17-2.2,3.12-3.12,3.02-2.92,6.72-3.23,10.58-2.58,3.07.52,6.2-1.46,9.1-1.79,1.72-.2,2.18-.72,3.44-1.63l5.41-3.89c.65-.47,1.11-1.09,1.41-1.77h.02v-.03c.58-1.36.47-2.97-.41-4.22l-.71-.49c1.92-1.31,3.28-3.96,3.07-5.15-.18-1-.49-2.21-1.67-2.58l-.35-1.71c1.21-.9,2.29-2.07,2.71-3.41.3-.96-.14-3.18-.81-3.85-.52-.52-.91-1.03-1.17-1.71,1.35-.43,2.72-.82,4.09-1.21l.02.08c4.53-1.51,8.78-2.7,13.29-3.71.59-.13,1.45-.86,1.52-1.37.06-.43-.23-1.42-.49-1.84Z"/>
          </g>
        </g>
      </g>
      <g>
        <g>
          <path class="cls-3" d="M511.49,315.3h8.73l23.58,53.97h-9.95l-5.43-12.94h-25.34l-5.51,12.94h-9.65l23.58-53.97ZM524.96,347.99l-9.26-21.44-9.19,21.44h18.45Z"/>
          <path class="cls-3" d="M553.29,346.54v-30.85h9.42v30.47c0,9.95,5.13,15.31,13.55,15.31s13.47-5.05,13.47-14.93v-30.85h9.42v30.39c0,16-9.03,24.04-23.04,24.04s-22.81-8.04-22.81-23.58Z"/>
          <path class="cls-3" d="M612.77,342.63v-.15c0-15.23,11.41-27.71,27.64-27.71,9.88,0,15.85,3.44,20.98,8.34l-6.05,6.97c-4.29-3.98-8.88-6.66-15-6.66-10.26,0-17.68,8.42-17.68,18.91v.15c0,10.49,7.43,19.06,17.68,19.06,6.58,0,10.79-2.68,15.39-6.97l6.05,6.12c-5.59,5.82-11.71,9.49-21.74,9.49-15.62,0-27.25-12.17-27.25-27.56Z"/>
          <path class="cls-3" d="M687.88,324.41h-16.99v-8.73h43.48v8.73h-17v44.86h-9.49v-44.86Z"/>
          <path class="cls-3" d="M727.92,315.69h9.42v53.59h-9.42v-53.59Z"/>
          <path class="cls-3" d="M752.34,342.63v-.15c0-15.08,11.64-27.71,28.1-27.71s27.94,12.48,27.94,27.56v.15c0,15.08-11.64,27.71-28.1,27.71s-27.94-12.48-27.94-27.56ZM798.5,342.63v-.15c0-10.41-7.58-19.06-18.22-19.06s-18.07,8.5-18.07,18.91v.15c0,10.41,7.58,19.06,18.22,19.06s18.07-8.5,18.07-18.91Z"/>
          <path class="cls-3" d="M822.85,315.69h8.73l28.71,37.05v-37.05h9.26v53.59h-7.88l-29.55-38.13v38.13h-9.26v-53.59Z"/>
          <path class="cls-3" d="M882.79,361.47l5.67-6.74c5.13,4.44,10.26,6.97,16.92,6.97,5.82,0,9.49-2.68,9.49-6.74v-.15c0-3.83-2.14-5.89-12.1-8.19-11.41-2.76-17.84-6.12-17.84-16v-.15c0-9.19,7.66-15.54,18.3-15.54,7.81,0,14.01,2.37,19.45,6.74l-5.05,7.12c-4.82-3.6-9.65-5.51-14.55-5.51-5.51,0-8.73,2.83-8.73,6.35v.15c0,4.14,2.45,5.97,12.71,8.42,11.33,2.76,17.22,6.81,17.22,15.69v.15c0,10.03-7.88,16-19.14,16-8.19,0-15.92-2.83-22.35-8.57Z"/>
        </g>
        <g>
          <path class="cls-2" d="M534.35,62.21v175.41h30.81v38.13h-73.52V62.21h42.71Z"/>
          <path class="cls-2" d="M646.05,275.75l-3.36-31.12h-26.85l-3.05,31.12h-38.74l28.06-213.54h58.27l28.07,213.54h-42.4ZM619.82,207.42h18.91l-9.46-93.04-9.46,93.04Z"/>
          <path class="cls-2" d="M761.68,275.75l-27.15-116.22.61,54.3.61,61.93h-36.91V62.21h43.62l24.71,105.85-.61-61.62-.31-44.23h36.91v213.54h-41.49Z"/>
          <path class="cls-2" d="M818.43,62.21h60.09c30.81,0,45.76,14.95,45.76,45.76v122.02c0,30.81-14.95,45.76-45.76,45.76h-60.09V62.21ZM861.14,239.14h8.54c8.24,0,11.9-3.66,11.9-11.9v-116.53c0-8.24-3.66-11.9-11.9-11.9h-8.54v140.32Z"/>
          <path class="cls-2" d="M973.09,134.51v141.24h-34.16V62.21h61.62l12.2,129.34,13.12-129.34h61.92v213.54h-42.1v-139.71l-16.17,139.71h-40.27l-16.17-141.24Z"/>
          <path class="cls-2" d="M1168.94,275.75l-3.36-31.12h-26.85l-3.05,31.12h-38.74l28.06-213.54h58.27l28.07,213.54h-42.4ZM1142.71,207.42h18.91l-9.46-93.04-9.46,93.04Z"/>
          <path class="cls-2" d="M1283.34,275.75l-27.15-116.22.61,54.3.61,61.93h-36.91V62.21h43.62l24.71,105.85-.61-61.62-.31-44.23h36.91v213.54h-41.49Z"/>
        </g>
      </g>
    </g>
  </g>
</svg>