<?xml version="1.0" encoding="UTF-8"?>
<svg id="Layer_3" data-name="Layer 3" xmlns="http://www.w3.org/2000/svg" xmlns:xlink="http://www.w3.org/1999/xlink" viewBox="0 0 530.95 542.42">
  <defs>
    <style>
      .cls-1 {
        fill: none;
      }

      .cls-2 {
        fill: #201e3d;
      }

      .cls-3 {
        fill: #ff9500;
      }

      .cls-4 {
        clip-path: url(#clippath);
      }
    </style>
    <clipPath id="clippath">
      <circle class="cls-1" cx="265.47" cy="140.09" r="140.09"/>
    </clipPath>
  </defs>
  <g id="Layer_1" data-name="Layer 1">
    <g>
      <g>
        <circle class="cls-3" cx="265.47" cy="140.09" r="140.09"/>
        <path class="cls-2" d="M350.33,268.43v7.33h-1.3v-7.33h-2.46v-1.13h6.21v1.13h-2.46ZM361.72,275.75v-7.06h-.04l-2.57,7.06h-.82l-2.57-7.06h-.04v7.06h-1.3v-8.45h2l2.34,6.42,2.31-6.42h1.98v8.45h-1.3Z"/>
        <g class="cls-4">
          <g>
            <path class="cls-2" d="M252.12,128.96l.27-.17c.07-.05-.23.09-.27.17Z"/>
            <path class="cls-2" d="M278.72,102.44s0,.03,0,.04c.19-.02.03-.08,0-.04Z"/>
            <path class="cls-2" d="M389.42,120.83c-1.53-2.42-5.27-1.17-7.85-.75-2.75.45-5.42.78-8.13,1.69,0,0,.01.01.02.02-.01,0-.03,0-.04,0-1.22.24-2.43.45-3.63.7l-.24-.24-5.9.64c-.61.07-1.19.16-1.67.35-.2-.14-.69-.45-1.01-.5-.32-.05-1.07.29-1.31.55-1.58,1.67-3.18,3.45-4.92,4.93-1.5,1.27-2.42,2.66-3.52,4.24-1.93,2.76-4.58,4.83-7.13,7.05-.56.49-.71,1.11-.75,1.6l-.4.24c-.11-.19-.08.76-.26.46l-.04-.29-5.71,3.34-13.17,9.22c-.56.36-1.11.73-1.63,1.14l-5.74,4.02s0,0,0,0c-.77.31-1.46.69-2.04,1.2l-1.24,1.1h0s-4.83.89-4.83.89c.08-.21.19-.42.34-.64-3,.74-4.82,1.5-6.47,3.36,0,0,0,0,0,0l-1.93.92-6.09-1.34h0c-1.35-1.48-4.67-1.94-6.13-2.35l-1.43-1.12-2.68-2.07c-1.26-.97-2.53-1.4-4.31-1.34,0,0,0,0,0,0l-2.32-1.36-.33-.59-.41-.77-2.04-5.33s-.01-.1-.06-.15l4.11-4.78,1.57-1.39c.14-.12.47-.71.3-.79l-.29-1.95c-3.32-3.46-4.98-3.57-8.24-7.25l1.91-2.26s0,0,0,0c1.57.24,2.96-.18,3.92-1.38l2.74-3.42c.64-.79,3.96,3.08,4.61,3.81.7.8,1.08,1.71,1.68,2.64.94,1.45,2.31,2.82,3.42,4.22h0s1.7-.04,1.7-.04c1.91,1.6,3.16,4.26,5.21,5.73,1.65.61,4.12-1.65,3.66-3.15,0,0,0,0,0,0-1.73-1.63-3.02-3.44-4.27-5.36.58.19-.14-1.04.45-.74.27-.21.57-1.67.11-1.95-.83-.51-1.12-.91-1.74-1.71l-6.73-8.74c-.12-.16-.06-.58,0-.43.02.06.73-1.28.83-1.33.82-.47.47-1.95.27-3.09-.24-1.38-.88-1.78-2.15-2.73l-1.47-3.21-2.38-1.61c-.47-.32-.77-.83-.83-1.39l-.08-.82c-.07-.74-.49-1.4-1.13-1.79l-.82-.49c.06-.05-.8-.72-.81-.71l-.3-.54-.94-.57s0-.03,0-.04c-.02-.84.12-1.81-.45-2.5-.25-.31-1.09-1.11-1.39-1.35-.3-.23-1.12-.28-1.53-.11l-4.05,1.71c1.03-1.57.05-3.48-1.28-6.22s-7.02-2.77-7.02-2.77c-1.33.14-2.89,1.2-3.89,2.27-2.9,3.1-1.33,7.95.77,9.48l2.37,1.74,1.67.33c.08.25.17.49.21.74.45,3.26-2.69,4.8-1.95,11.45.37,3.31-1.6,6.92-3.12,7.67l-1.28.63-4.99,4.26-.2-.25-.45-.57-2.46-3.09,2.88.26c.63.14,1.16.26,1.42.32.9.23.56-3.62-.46-5.88-.13-.29-.28-.59-.44-.88.01-.1,0-.21-.06-.31l-.09-.17c-.06-.11-.15-.17-.24-.22-1.06-1.78-2.34-3.39-2.34-3.39l-6.46,3.19-1.38-3.75c1.19-.95,2.91-1.51,4.42-1.85,2.22-.51,3.62-1.8,5.35-3.11.71-.54,2.89-.02,3.16-1.37l.21-1.04c-.43-.73-1.16-2-1.86-2.63l-2.12-1.92c-.34-.31-1.5-1-.98-1.5,1.21-1.16,3.18-1.15,4.67-.57.24.09.5.03.65-.18l.26-.36c.32-.45.29-1.06-.08-1.47l-1.19-1.33-2.29-2.57,2.86,1.46,2.06-3.11c.28-.42.54-1.57.32-2l-1.59-1.03c-.33-.22-.95-.52-1-.82l-.85-.7-.89-.67,1.26-.49c.58-.22,1.47.11,2.23-.15.64-.22.66-.15.64-.22l.35-.05c.85-.3,1.83.01,2.13-.95.38-1.25-1.36-3.65-1.87-4.57l-2.01-3.68c-.05-.09-.16-.56-.14-.57.02-.01.16-.01.28-.02l1.65,2.09,26.31-13.99c.88-.47.73-1.87.35-2.63-1.79-3.58-4.62-6.16-7.83-8.49-2.18-1.58-4.62-2.47-6.97-3.77-4.19-2.33-8-4.98-12.56-6.72-8.27-3.15-16.86-4.47-25.38-4.17l-.02-.11c-.08-.2-.21-.43-.36-.66l-.17-.96c-.28-.7-1.09-1.71-1.89-2.25-.67-.44-2.24-.29-3.03.07-4.42,1.97-8.58,3.92-12.78,6.43.11,0,.22-.02.33-.03-.84.43-1.68.88-2.52,1.34-4.11,1.41-8.13,3.18-12,5.29-5.32,2.9-9.86,6.36-14.22,10.53-6.79,6.51-13.61,16.19-14.98,25.72-.59,4.08.56,8.23,2.92,11.53,2.39,3.33,5.72,5.26,9.54,6.61,4.42,1.58,9.18,2.47,13.75.98,3.07-1,5.81-3.19,8.92-3.81,0,0,.02,0,.02.01.52.79,1.23,1.07,2.21,1.12.09.39-.14,1.65-.59,1.6-.57-.06-1.48-.32-1.81-.11-.29.18-.58.72-.78,1.14-1.16,2.39-2.47,4.61-4.28,6.52,0,0,0,0,0,0-3.45-1.17-3.2,1.11-6.89.08-2.8-.79-5.46-.9-8.28-.37-1.73.33-3.68.31-5.23,1.28-5.43,3.4-7.54,9.59-8.92,15.49-.53,2.26-.35,4.27-.48,6.55-.27,4.86-1.08,9.58-.89,14.5.1,2.7.51,5.24.77,7.91l.39,4.03c.06.63.38.62.57,1.62.11.54-.11,1.32.45,1.71l.26,1.23c.13.09.21.23.23.39.33,3.07,1.96,2.88,1.87,4.74-.06,1.22.71,1.83,1.11,2.78,1.47,3.52,2.49,7.12,3.49,10.83,1.15,4.29,2.42,8.41,3.86,12.59l-1.21,2.92c-.35.84.12,2.13.67,2.75l2.49,2.8h0c-.98,2.94.26,5.98-.04,8.87-.45,4.3-2.73,8.23-2.26,12.78.35,3.36-.15,6.74-1.2,9.95-2.46,7.56-4.84,18.04-5.59,25.92l-1.83,19.08h105.48s-.22-7.65-.22-7.65l-.12-14.15c-.04-5.15-.22-10.12,0-15.29.08-1.9.11-3.8.1-5.69h0s0-.02,0-.02c-.04-11.04-1.45-21.88-3.4-32.82-.88-4.95.64-9.81,1.18-14.73l10.36,2.85c4.46,1.23,8.83,2.3,13.4,3.07,1.68.28,3.28-.2,4.65-1.17,6.51-4.6,9.37-4.32,16-7.74l9.67-4.99,22.92-11.37c.41-.2.18-1.02.15-.96l.87.19c-.59-1.37-.9-2.28-1.79-3.56,0,0,0,0,0,0,2.21-1.74,4.69-2.35,7.58-4.38l-6.53-10.55c.08-.17.17-.35.28-.51.49-.73,1.47-1.49,2.11-2.1,2.04-1.98,4.54-2.18,7.14-1.74,2.07.35,4.19-.98,6.15-1.21,1.16-.14,1.47-.49,2.33-1.1l3.65-2.63c.44-.32.75-.73.95-1.19h.01v-.02c.39-.92.31-2-.27-2.85l-.48-.33c1.29-.88,2.22-2.67,2.07-3.48-.12-.68-.33-1.49-1.13-1.74l-.24-1.16c.82-.6,1.55-1.39,1.83-2.3.2-.65-.1-2.15-.54-2.6-.35-.35-.62-.7-.79-1.15.91-.29,1.83-.56,2.77-.81v.06c3.08-1.02,5.94-1.83,8.99-2.51.4-.09.98-.58,1.03-.92.04-.29-.15-.96-.33-1.24Z"/>
          </g>
        </g>
      </g>
      <g>
        <path class="cls-3" d="M141.46,507.44h5.56l15.03,34.39h-6.34l-3.46-8.24h-16.15l-3.51,8.24h-6.15l15.03-34.39ZM150.05,528.27l-5.9-13.66-5.85,13.66h11.76Z"/>
        <path class="cls-3" d="M168.1,527.35v-19.66h6v19.42c0,6.34,3.27,9.76,8.63,9.76s8.59-3.22,8.59-9.51v-19.66h6v19.37c0,10.2-5.76,15.32-14.68,15.32s-14.54-5.12-14.54-15.03Z"/>
        <path class="cls-3" d="M206,524.86v-.1c0-9.71,7.27-17.66,17.61-17.66,6.29,0,10.1,2.19,13.37,5.32l-3.85,4.44c-2.73-2.54-5.66-4.24-9.56-4.24-6.54,0-11.27,5.37-11.27,12.05v.1c0,6.68,4.73,12.15,11.27,12.15,4.2,0,6.88-1.71,9.81-4.44l3.85,3.9c-3.56,3.71-7.46,6.05-13.86,6.05-9.95,0-17.37-7.76-17.37-17.56Z"/>
        <path class="cls-3" d="M253.86,513.25h-10.83v-5.56h27.71v5.56h-10.83v28.59h-6.05v-28.59Z"/>
        <path class="cls-3" d="M279.38,507.69h6v34.15h-6v-34.15Z"/>
        <path class="cls-3" d="M294.94,524.86v-.1c0-9.61,7.42-17.66,17.9-17.66s17.81,7.95,17.81,17.56v.1c0,9.61-7.42,17.66-17.9,17.66s-17.81-7.95-17.81-17.56ZM324.36,524.86v-.1c0-6.63-4.83-12.15-11.61-12.15s-11.51,5.41-11.51,12.05v.1c0,6.63,4.83,12.15,11.61,12.15s11.51-5.42,11.51-12.05Z"/>
        <path class="cls-3" d="M339.87,507.69h5.56l18.29,23.61v-23.61h5.9v34.15h-5.02l-18.83-24.3v24.3h-5.9v-34.15Z"/>
        <path class="cls-3" d="M378.07,536.86l3.61-4.29c3.27,2.83,6.54,4.44,10.78,4.44,3.71,0,6.05-1.71,6.05-4.29v-.1c0-2.44-1.37-3.76-7.71-5.22-7.27-1.76-11.37-3.9-11.37-10.2v-.1c0-5.85,4.88-9.9,11.66-9.9,4.98,0,8.93,1.51,12.39,4.29l-3.22,4.54c-3.07-2.29-6.15-3.51-9.27-3.51-3.51,0-5.56,1.81-5.56,4.05v.1c0,2.64,1.56,3.81,8.1,5.37,7.22,1.76,10.98,4.34,10.98,10v.1c0,6.39-5.02,10.2-12.2,10.2-5.22,0-10.15-1.81-14.25-5.46Z"/>
      </g>
      <g>
        <path style="fill:#F6F3EC" d="M27.22,328.9v111.78h19.63v24.3H0v-136.08h27.22Z"/>
        <path style="fill:#F6F3EC" d="M98.4,464.98l-2.14-19.83h-17.11l-1.94,19.83h-24.69l17.88-136.08h37.13l17.88,136.08h-27.02ZM81.68,421.44h12.05l-6.03-59.29-6.03,59.29Z"/>
        <path style="fill:#F6F3EC" d="M172.08,464.98l-17.3-74.06.39,34.6.39,39.46h-23.52v-136.08h27.8l15.75,67.46-.39-39.27-.19-28.19h23.52v136.08h-26.44Z"/>
        <path style="fill:#F6F3EC" d="M208.25,328.9h38.3c19.63,0,29.16,9.53,29.16,29.16v77.76c0,19.63-9.53,29.16-29.16,29.16h-38.3v-136.08ZM235.46,441.65h5.44c5.25,0,7.58-2.33,7.58-7.58v-74.26c0-5.25-2.33-7.58-7.58-7.58h-5.44v89.42Z"/>
        <path style="fill:#F6F3EC" d="M306.8,374.98v90.01h-21.77v-136.08h39.27l7.78,82.42,8.36-82.42h39.46v136.08h-26.83v-89.03l-10.3,89.03h-25.66l-10.3-90.01Z"/>
        <path style="fill:#F6F3EC" d="M431.61,464.98l-2.14-19.83h-17.11l-1.94,19.83h-24.69l17.88-136.08h37.13l17.88,136.08h-27.02ZM414.89,421.44h12.05l-6.03-59.29-6.03,59.29Z"/>
        <path style="fill:#F6F3EC" d="M504.51,464.98l-17.3-74.06.39,34.6.39,39.46h-23.52v-136.08h27.8l15.75,67.46-.39-39.27-.19-28.19h23.52v136.08h-26.44Z"/>
      </g>
    </g>
  </g>
</svg>